<svg width="128" height="40" viewBox="0 0 128 40" fill="none" xmlns="http://www.w3.org/2000/svg">
<path d="M17.7418 2.3779C15.1309 5.00249 15.1789 4.93397 15.1857 5.79056C15.1926 6.46212 15.3433 6.72938 16.3644 7.76414L17.2278 8.63444L20.1197 5.75629L20.9831 6.62659C21.456 7.11313 21.9083 7.64079 21.9974 7.80526C22.2098 8.23013 22.2509 8.73723 22.1001 9.18951C21.9905 9.539 21.7507 9.79255 17.8514 13.7055C13.918 17.6526 13.7124 17.8788 13.4725 18.3653C13.2121 18.8998 13.0203 19.6399 13.0203 20.1128C13.0203 20.5856 13.2121 21.3257 13.4725 21.8602C13.7124 22.3468 13.9043 22.5592 16.8989 25.5607L20.0786 28.7472L23.6489 25.1838C25.6087 23.2239 27.2877 21.5107 27.3768 21.3737C27.5823 21.0584 27.7537 20.476 27.7537 20.1128C27.7537 19.7496 27.5823 19.1671 27.3768 18.8519C27.2877 18.7148 26.9039 18.2968 26.527 17.9199L25.8349 17.2346L20.106 22.9635L19.1123 21.9493C18.0502 20.8666 17.9542 20.709 17.9542 20.0716C17.9611 19.4343 17.9885 19.4069 22.4359 14.939C25.9651 11.3961 26.6641 10.656 26.8491 10.3065C27.4521 9.14154 27.3905 7.74359 26.6846 6.68141C26.5613 6.48954 25.0263 4.91341 23.2857 3.16596L20.1128 0L17.7418 2.3779Z" fill="#334155"/>
<path d="M83.535 11.1837L83.3294 11.0055C83.0416 10.7657 82.7195 10.6903 81.9862 10.6903C80.9515 10.6903 80.3896 10.9507 79.9921 11.6291C79.6906 12.15 79.6289 12.568 79.6289 14.2263C79.6289 15.9395 79.7111 16.3918 80.1155 16.8783C80.4649 17.3032 80.9172 17.4882 81.6916 17.5294C82.5208 17.5705 82.9456 17.4471 83.3431 17.0497C83.4939 16.8989 83.6241 16.7893 83.6309 16.803C83.6378 16.8167 83.6857 16.9126 83.7405 17.0154C83.8708 17.2689 84.1586 17.4745 84.4601 17.5225L84.6999 17.5636V13.3697C84.6999 8.74415 84.7068 8.83323 84.2751 8.56598C84.1517 8.4906 83.9324 8.42892 83.7954 8.42892H83.535V11.1837ZM83.0073 11.9033C83.1307 11.9718 83.2951 12.1637 83.3842 12.335C83.5281 12.6159 83.535 12.7256 83.535 13.9796C83.535 14.7129 83.5007 15.4324 83.4596 15.5763C83.3636 15.9327 82.9867 16.337 82.6578 16.4329C82.2946 16.5426 81.6642 16.5357 81.3901 16.4192C81.116 16.3027 80.9035 16.0697 80.8007 15.7682C80.7528 15.6243 80.7253 15.0213 80.7253 14.2195C80.7253 12.3967 80.8487 12.0472 81.5545 11.8142C81.9451 11.6908 82.7126 11.7388 83.0073 11.9033Z" fill="#334155"/>
<path d="M94.9789 9.79947C94.9789 10.5533 94.9583 11.17 94.9378 11.17C94.9172 11.17 94.8076 11.0946 94.6911 10.9987C94.3964 10.752 94.0127 10.6698 93.1972 10.704C92.5462 10.7246 92.4434 10.7451 92.1007 10.937C91.6416 11.1974 91.3195 11.6017 91.1619 12.1157C91.0591 12.4446 91.0386 12.7736 91.0386 14.1852C91.0386 16.0286 91.066 16.2205 91.436 16.7618C91.5936 17.0085 91.765 17.1524 92.0596 17.3032C92.4434 17.4951 92.5119 17.5088 93.2589 17.5088C94.1634 17.5088 94.4581 17.406 94.8213 16.9606L95.02 16.7207L95.1091 16.9606C95.205 17.2415 95.4997 17.4677 95.8355 17.5225L96.0753 17.5636V13.3355C96.0753 8.7373 96.089 8.8812 95.6916 8.57283C95.5751 8.48374 95.4106 8.42892 95.2462 8.42892H94.9789V9.79947ZM94.3827 11.9033C94.6842 12.0883 94.835 12.3213 94.9172 12.7804C95.0132 13.3149 94.9583 15.2885 94.835 15.6517C94.6294 16.2616 94.0538 16.5631 93.2246 16.4946C92.7175 16.4535 92.4914 16.3301 92.2721 15.9601C92.1487 15.7476 92.135 15.6037 92.135 14.1852C92.135 12.7324 92.1419 12.6296 92.2858 12.3624C92.4571 12.0472 92.6695 11.8827 93.0396 11.7868C93.4028 11.6977 94.1292 11.7594 94.3827 11.9033Z" fill="#334155"/>
<path d="M48.86 11.6908C48.86 15.823 48.8258 16.0354 48.1405 16.3781C47.8458 16.522 47.7088 16.5494 47.1743 16.5494C46.0915 16.5425 45.6941 16.2136 45.5639 15.2337C45.5365 14.9733 45.5091 13.5068 45.5022 11.9718C45.5022 8.94971 45.4953 8.9223 45.1322 8.6756C45.0362 8.61393 44.8375 8.56596 44.6799 8.56596H44.4058V11.8347C44.4058 13.7261 44.4332 15.3022 44.4743 15.5557C44.5154 15.8024 44.6388 16.193 44.7553 16.4329C45.1184 17.1867 45.7558 17.5156 46.9413 17.591C48.1268 17.6595 48.9834 17.3649 49.4425 16.7344C49.9017 16.0971 49.9154 16.0217 49.9428 12.424C49.9633 9.58701 49.9496 9.16214 49.8537 8.98397C49.7166 8.71672 49.5179 8.58651 49.1547 8.52484L48.86 8.47687V11.6908Z" fill="#334155"/>
<path d="M57.1861 8.57967C56.9599 8.70987 56.8845 8.86063 56.8777 9.1553C56.8777 9.75834 57.563 10.0119 58.0289 9.58017C58.1797 9.42941 58.2345 9.05936 58.1386 8.80581C58.0358 8.55226 57.4739 8.4152 57.1861 8.57967Z" fill="#334155"/>
<path d="M77.7649 8.70303C77.5798 8.88806 77.5593 8.94973 77.5935 9.18958C77.6415 9.53221 77.7991 9.71724 78.1006 9.77206C78.594 9.86114 78.9984 9.47739 78.9161 9.00455C78.8133 8.4906 78.1555 8.31928 77.7649 8.70303Z" fill="#334155"/>
<path d="M10.7519 9.61447C10.6149 9.66929 10.4162 9.77208 10.3065 9.85431C10.1969 9.92969 7.83268 12.2733 5.05047 15.0555L0 20.1129L6.48954 26.5955C13.8288 33.9211 13.2326 33.4072 14.3565 33.4072C15.2336 33.4072 15.6311 33.2016 16.5494 32.2764L17.2346 31.5912L5.7563 20.1129L10.0393 15.8299C12.3966 13.4726 14.3222 11.5127 14.3222 11.4716C14.3222 11.3414 12.8694 9.97081 12.5131 9.76523C12.2253 9.59391 12.0882 9.5665 11.588 9.54594C11.2111 9.53223 10.9096 9.55965 10.7519 9.61447Z" fill="#334155"/>
<path d="M52.951 10.7177C52.6015 10.8137 52.2452 11.0398 52.0876 11.2591C51.9985 11.3893 51.9917 11.3825 51.9026 11.1837C51.7929 10.9233 51.5462 10.7589 51.1899 10.7109L50.9158 10.6698V17.5431H52.0054L52.0465 12.6434L52.2315 12.3213C52.6838 11.5606 53.9036 11.403 54.4929 12.0335C54.8355 12.4035 54.8492 12.4994 54.8904 14.8842L54.9246 17.1319L55.1096 17.3101C55.2398 17.4471 55.3769 17.5019 55.6442 17.5294L55.9937 17.5636L55.9731 14.8636C55.9457 12.4309 55.932 12.1294 55.8155 11.821C55.6579 11.403 55.1576 10.8891 54.7876 10.7726C54.3764 10.6355 53.3416 10.6081 52.951 10.7177Z" fill="#334155"/>
<path d="M71.474 10.6765C71.008 10.7245 70.8367 10.7793 70.5214 10.9986C70.1925 11.2248 70.1788 11.2316 70.1377 11.0946C70.0692 10.8958 69.6991 10.6903 69.4044 10.6903H69.144V13.8836C69.144 15.9394 69.1715 17.1181 69.2126 17.2072C69.3154 17.3922 69.6443 17.543 69.9664 17.543H70.2405V15.2199C70.2405 13.678 70.2679 12.8283 70.3159 12.6707C70.5009 12.1156 71.193 11.7319 71.8577 11.8072L72.1592 11.8415V10.704L71.9057 10.6834C71.7618 10.6697 71.5699 10.6628 71.474 10.6765Z" fill="#334155"/>
<path d="M73.9204 10.6971C72.9062 10.937 72.3443 11.6497 72.3374 12.7118C72.3374 13.1847 72.3648 13.308 72.5293 13.6164C72.8514 14.1989 73.4133 14.473 74.4892 14.5621C75.1333 14.6169 75.6678 14.7608 75.8117 14.9253C76.0173 15.1514 76.079 15.4461 75.9968 15.7682C75.8871 16.1656 75.5993 16.4192 75.1333 16.522C74.3315 16.7001 73.6189 16.3575 73.4407 15.7065C73.3722 15.4598 73.3379 15.4187 73.1734 15.4187C72.7349 15.4187 72.4333 15.727 72.4333 16.1862C72.4333 16.5631 72.8239 17.0496 73.3448 17.31C74.3315 17.8171 76.0653 17.6047 76.6546 16.9057C77.1001 16.3781 77.2645 15.542 77.0658 14.8567C76.8191 14.0002 76.3257 13.7192 74.8044 13.5684C73.6326 13.4519 73.4613 13.3354 73.4613 12.6502C73.4613 12.006 73.893 11.6497 74.6879 11.6497C75.3663 11.6497 75.7364 11.869 75.8597 12.3486C75.9282 12.5885 75.9556 12.6091 76.1749 12.6091C76.3531 12.6091 76.4696 12.5542 76.6204 12.4103C77.1617 11.8621 76.5313 10.9096 75.4828 10.704C75.0237 10.6081 74.2973 10.6081 73.9204 10.6971Z" fill="#334155"/>
<path d="M87.1668 10.7109C86.9612 10.7588 86.694 10.8548 86.5706 10.9164C86.0909 11.17 85.7277 11.8553 85.7277 12.52C85.7277 12.7941 85.7414 12.8146 85.9196 12.8146C86.2554 12.8146 86.7008 12.5337 86.8927 12.1979C87.1394 11.7662 87.4203 11.636 88.0028 11.6702C88.8663 11.7251 89.1541 12.054 89.1541 12.9997V13.5547L88.5579 13.6027C87.1257 13.7055 86.5638 13.87 86.0361 14.3291C85.6523 14.6717 85.4536 15.1377 85.4536 15.7339C85.4536 16.3986 85.6044 16.7961 85.9744 17.125C86.3445 17.4471 86.7693 17.5773 87.4409 17.5704C88.0645 17.5704 88.5099 17.3923 88.9348 16.9743L89.2226 16.6933V16.8852C89.2226 17.0154 89.298 17.1524 89.4556 17.31C89.6543 17.5088 89.7366 17.543 90.0038 17.543H90.3191V15.124C90.3191 13.6644 90.2916 12.5405 90.2437 12.3007C90.0998 11.5332 89.7366 11.0672 89.0924 10.8205C88.6127 10.6423 87.6876 10.5875 87.1668 10.7109ZM89.1884 14.8156C89.0033 16.0286 88.5373 16.5151 87.5574 16.5151C86.7419 16.5151 86.3308 15.9326 86.6597 15.2405C86.8721 14.7951 87.578 14.5415 88.6607 14.5347L89.2363 14.5278L89.1884 14.8156Z" fill="#334155"/>
<path d="M58.3511 10.8753C58.3991 11.0877 60.126 16.9605 60.2425 17.3168L60.3178 17.543H61.4417L62.4216 14.1989C62.963 12.3623 63.4221 10.8205 63.4358 10.7725C63.4907 10.6354 62.9219 10.6697 62.5998 10.8273C62.449 10.9027 62.2709 11.0534 62.2023 11.1631C61.9488 11.5948 61.2361 14.1029 60.9414 15.6242L60.8798 15.9326L60.7564 15.3844C60.3521 13.541 59.7011 11.3618 59.4681 11.0672C59.2831 10.8342 58.9541 10.6903 58.5841 10.6903C58.31 10.6903 58.3031 10.6971 58.3511 10.8753Z" fill="#334155"/>
<path d="M65.012 10.7656C64.4021 10.9095 63.9293 11.2864 63.6483 11.8484C63.4976 12.1499 63.4907 12.2527 63.4702 13.9796C63.4496 15.5146 63.4633 15.8641 63.5592 16.2204C63.7169 16.796 64.0801 17.2072 64.594 17.4059C65.0806 17.5841 66.0125 17.6526 66.6635 17.5498C67.7463 17.3785 68.3013 16.8646 68.4315 15.912L68.4795 15.5557H68.0821C67.7257 15.5557 67.6709 15.5763 67.479 15.7887C67.3557 15.9189 67.1981 16.1039 67.1227 16.2067C67.0267 16.3301 66.8623 16.4191 66.6087 16.4877C65.6219 16.7412 64.7996 16.474 64.6214 15.8367C64.5872 15.6996 64.5529 15.3707 64.5529 15.0966V14.6032L66.1496 14.5826C67.664 14.5621 67.7531 14.5552 67.9861 14.4044C68.3562 14.1783 68.459 13.9042 68.459 13.1709C68.459 11.4578 67.664 10.6766 65.9303 10.6971C65.5671 10.704 65.1559 10.7314 65.012 10.7656ZM66.8143 11.8278C67.1432 12.0197 67.2871 12.2458 67.3694 12.7255C67.431 13.0613 67.4242 13.1847 67.3488 13.3423L67.2597 13.5341L65.9029 13.5547L64.5529 13.5684V13.1161C64.5529 12.3007 64.7448 11.9443 65.2861 11.7456C65.6562 11.6085 66.5196 11.6496 66.8143 11.8278Z" fill="#334155"/>
<path d="M98.4671 10.7862C97.7476 10.9781 97.2679 11.4235 97.0623 12.1088C96.9184 12.561 96.8567 14.562 96.9595 15.5077C97.0486 16.378 97.1856 16.7275 97.5625 17.0701C98.0011 17.4676 98.426 17.5772 99.4676 17.5704C100.228 17.5704 100.42 17.543 100.77 17.4059C101.469 17.1387 101.804 16.6864 101.941 15.8435L101.989 15.5557H101.592C101.229 15.5557 101.188 15.5694 100.968 15.8092C100.441 16.3986 100.386 16.4397 100.043 16.5082C99.0907 16.7138 98.3232 16.4603 98.1382 15.8709C98.1039 15.7544 98.0491 15.4186 98.0217 15.1308L97.9805 14.6032L99.6115 14.5826C101.078 14.562 101.27 14.5483 101.469 14.4318C101.832 14.2126 101.969 13.8768 101.969 13.2121C101.969 11.8552 101.489 11.0877 100.454 10.7999C100.002 10.6697 98.9194 10.6628 98.4671 10.7862ZM100.331 11.8278C100.667 12.0265 100.872 12.4377 100.893 12.9517C100.914 13.5684 100.92 13.5684 99.31 13.5684H97.9805L98.0285 13.0682C98.1039 12.2047 98.2547 11.9443 98.796 11.7456C99.1661 11.6085 100.03 11.6496 100.331 11.8278Z" fill="#334155"/>
<path d="M56.9463 17.543H58.0427V14.425C58.0427 11.6428 58.029 11.2864 57.9331 11.1288C57.7823 10.9027 57.4945 10.7588 57.1861 10.7588H56.9463V17.543Z" fill="#334155"/>
<path d="M77.71 13.8425C77.71 17.262 77.7031 17.2209 78.1485 17.4333C78.2787 17.495 78.4775 17.543 78.594 17.543H78.8064V14.425C78.8064 11.773 78.7927 11.2727 78.7036 11.1014C78.5666 10.841 78.4089 10.7588 78.0252 10.7588H77.71V13.8425Z" fill="#334155"/>
<path d="M30.899 12.4309C30.5358 12.5611 30.3439 12.7187 29.4873 13.5822L28.713 14.3565L31.5568 17.2004C33.1193 18.7628 34.4007 20.0717 34.4007 20.1128C34.4007 20.1471 30.5358 24.0463 25.8211 28.761L17.2346 37.3474L17.9884 38.1012C18.941 39.0606 19.2425 39.2251 20.0785 39.2251C21.1749 39.2319 20.2498 40.068 30.8236 29.5079L40.2256 20.1128L36.5114 16.3918C33.6949 13.5822 32.7081 12.6365 32.4546 12.5063C32.1804 12.3692 32.0091 12.335 31.6322 12.335C31.365 12.3418 31.036 12.3829 30.899 12.4309Z" fill="#334155"/>
<path d="M115.284 19.6331C114.763 19.8592 114.626 20.6199 115.023 21.0379C115.373 21.4011 116.024 21.3942 116.373 21.0242C116.531 20.8529 116.565 20.7569 116.565 20.476C116.565 20.0237 116.428 19.777 116.085 19.6399C115.75 19.5097 115.572 19.5029 115.284 19.6331Z" fill="#334155"/>
<path d="M119.286 20.3732C119.108 20.7981 118.964 21.1682 118.964 21.1956C118.964 21.223 119.272 21.2435 119.642 21.2435H120.32L120.752 20.4692C120.985 20.0512 121.191 19.6811 121.204 19.6469C121.218 19.6194 120.869 19.5989 120.423 19.5989H119.608L119.286 20.3732Z" fill="#334155"/>
<path d="M104.203 19.7359C103.12 19.9072 102.462 20.5034 102.25 21.5039C102.147 21.9973 102.147 26.383 102.25 26.8764C102.4 27.596 102.777 28.1168 103.339 28.4046C103.935 28.7061 104.854 28.8226 105.793 28.713C106.67 28.617 107.129 28.4251 107.561 27.9934C108.102 27.4589 108.205 27.0477 108.205 25.5264C108.205 24.4163 108.198 24.3341 108.047 24.1148C107.965 23.9846 107.759 23.8133 107.588 23.7242C107.314 23.5871 107.184 23.5734 106.272 23.5734C105.635 23.5734 105.251 23.6008 105.224 23.6488C105.142 23.7721 105.258 24.3067 105.416 24.5396C105.621 24.848 105.936 25.0125 106.389 25.0605L106.766 25.1016V25.5881C106.759 26.4927 106.601 26.8559 106.08 27.1163C105.841 27.2465 105.662 27.2739 105.21 27.2739C104.258 27.2739 103.929 27.0409 103.812 26.2871C103.771 26.0267 103.75 25.0193 103.764 23.8955C103.785 22.1275 103.798 21.9425 103.922 21.6889C104.114 21.312 104.415 21.1544 105.046 21.1201C106.026 21.0653 106.512 21.3394 106.601 21.9904L106.649 22.3399H106.951C107.492 22.3399 107.944 21.9699 108.033 21.4491C108.075 21.2229 108.047 21.0996 107.896 20.7981C107.677 20.3526 107.293 20.0511 106.67 19.8592C106.183 19.7085 104.833 19.6399 104.203 19.7359Z" fill="#334155"/>
<path d="M44.4058 28.713H46.6946C48.9491 28.713 48.9765 28.713 49.2027 28.5554C49.559 28.3156 49.7029 28.0757 49.7372 27.6509L49.7646 27.274H46.0504V24.8755H47.1537C48.0309 24.8755 48.305 24.8549 48.49 24.7659C48.8326 24.6014 49.0039 24.3204 49.0451 23.8476L49.0862 23.4364H46.0504V21.1065H47.3936C48.49 21.1065 48.7778 21.0859 48.9697 20.9969C49.3055 20.8392 49.4973 20.5377 49.5316 20.0991L49.559 19.7359H44.4058V28.713Z" fill="#334155"/>
<path d="M68.1848 22.2852L67.9792 22.1138C67.6708 21.8534 67.3213 21.7575 66.6772 21.7644C65.7178 21.7712 65.0736 22.155 64.6967 22.9567C64.5254 23.3268 64.5186 23.3679 64.498 25.0468C64.4774 26.4722 64.4911 26.8285 64.5871 27.178C64.7927 27.9387 65.2861 28.4732 65.9508 28.6514C66.1084 28.6925 66.5127 28.713 66.8485 28.6993C67.3761 28.6788 67.5201 28.6445 67.7942 28.4869C67.9655 28.3841 68.1574 28.2333 68.2122 28.1511C68.2739 28.0689 68.3287 28.014 68.3355 28.0346C68.3492 28.0483 68.4041 28.1511 68.4589 28.2676C68.6028 28.5417 68.9591 28.713 69.4046 28.713H69.7609V24.6631C69.7609 20.1608 69.7746 20.3253 69.2949 19.9552C69.1099 19.8182 68.9591 19.7702 68.6233 19.7497L68.1848 19.7222V22.2852ZM67.8421 23.4707C68.1437 23.7585 68.1985 24.0669 68.1711 25.3483C68.1505 26.6367 68.0683 26.9245 67.6434 27.1643C67.3487 27.3356 66.8622 27.3425 66.5607 27.1849C66.1495 26.9656 66.0947 26.7737 66.0741 25.3209C66.0536 23.8544 66.0947 23.6831 66.5401 23.3816C66.7457 23.2445 66.8485 23.224 67.2048 23.2445C67.568 23.2651 67.6708 23.3062 67.8421 23.4707Z" fill="#334155"/>
<path d="M82.781 23.2034C82.781 25.2729 82.8084 26.8696 82.8495 27.13C83.0209 28.1785 83.4937 28.5759 84.6861 28.6856L85.1795 28.7335V27.1368H84.9807C84.6929 27.1368 84.4873 26.9381 84.4188 26.5886C84.3914 26.4173 84.364 24.9919 84.3571 23.4158C84.3571 20.9146 84.3434 20.5171 84.2475 20.3115C84.0693 19.9415 83.7815 19.777 83.247 19.7496L82.781 19.7222V23.2034Z" fill="#334155"/>
<path d="M91.484 22.292L91.3332 22.155C91.0043 21.8603 90.7233 21.7712 90.1134 21.7644C89.4144 21.7575 89.0512 21.8603 88.6606 22.155C88.2632 22.4565 88.0165 22.8402 87.8863 23.3336C87.7629 23.8339 87.7424 26.4516 87.8589 27.0136C88.0302 27.8016 88.503 28.3909 89.1403 28.6034C89.3322 28.6719 89.6817 28.713 90.038 28.713C90.7028 28.713 91.0934 28.576 91.4566 28.2265L91.6621 28.0278L91.7718 28.2539C91.9088 28.5486 92.2515 28.713 92.7106 28.713H93.0601V24.6836C93.0601 20.1814 93.0807 20.4007 92.5598 19.9826C92.3543 19.8182 92.2172 19.7702 91.8951 19.7497L91.484 19.7222V22.292ZM90.9769 23.3336C91.3949 23.505 91.484 23.8202 91.484 25.1496C91.484 25.7732 91.4497 26.3968 91.4154 26.5339C91.1139 27.6029 89.668 27.5755 89.4281 26.4996C89.3802 26.2803 89.3528 25.7047 89.3733 24.9988C89.3939 23.9709 89.4076 23.8407 89.5378 23.6626C89.8325 23.2651 90.4629 23.1143 90.9769 23.3336Z" fill="#334155"/>
<path d="M55.6443 23.5186C55.6511 26.5749 55.6923 27.2191 55.9184 27.7399C56.2336 28.4526 56.6174 28.665 57.6864 28.6993L58.4539 28.7267V27.3424H58.2141C57.8577 27.3424 57.5151 27.178 57.3986 26.9381C57.3095 26.7668 57.2889 26.4379 57.2889 24.9783V23.2308H58.4539V21.7917H57.3026L57.2547 21.5656C57.1862 21.2298 56.9189 20.8666 56.6516 20.7433C56.5146 20.6747 56.2405 20.6268 56.028 20.6268H55.6443V23.5186Z" fill="#334155"/>
<path d="M51.8067 21.8602C51.3545 21.9562 50.8131 22.244 50.5664 22.5249C50.1963 22.9498 50.0661 23.3267 50.0661 23.9846C50.0593 24.4848 50.0867 24.6219 50.2375 24.9097C50.5595 25.547 51.1215 25.8348 52.3138 25.9787C53.0813 26.0678 53.4994 26.2391 53.561 26.479C53.6296 26.7531 53.5405 26.9724 53.2938 27.1505C53.1156 27.2807 52.9854 27.3081 52.5811 27.3081C52.0123 27.3081 51.7451 27.1642 51.6354 26.8079C51.5737 26.5886 51.5737 26.5886 51.1009 26.5886C50.6555 26.5886 50.6144 26.6023 50.3951 26.8216C49.9908 27.2259 50.121 27.781 50.7309 28.2333C51.3476 28.6855 52.6633 28.8569 53.6227 28.6102C54.8562 28.2881 55.4867 27.1916 55.1303 25.9993C54.8905 25.1906 54.2463 24.7932 52.9786 24.6698C51.9369 24.5739 51.6697 24.4231 51.6697 23.9366C51.6697 23.5323 52.074 23.2308 52.6291 23.2308C53.0813 23.2308 53.376 23.3884 53.5062 23.7173L53.6227 23.9983L54.0202 23.9709C54.3354 23.9435 54.4519 23.9023 54.6164 23.7447C54.8356 23.5391 54.9316 23.2034 54.8631 22.9224C54.7877 22.6277 54.3697 22.2371 53.9174 22.0315C53.5542 21.8671 53.376 21.8328 52.8004 21.8191C52.4235 21.8054 51.9781 21.826 51.8067 21.8602Z" fill="#334155"/>
<path d="M60.4753 21.8328C59.9614 21.963 59.6325 22.1138 59.3995 22.3262C59.002 22.6825 58.8444 23.032 58.8101 23.6556L58.7759 24.1901H59.0157C59.4817 24.1901 59.9271 23.9983 60.3657 23.6077C60.7837 23.2308 60.7906 23.2308 61.2291 23.2308C61.6197 23.2308 61.6951 23.2513 61.9007 23.4363C62.1474 23.6488 62.2913 24.0394 62.2913 24.4848V24.7178L61.3868 24.7589C59.468 24.8274 58.6662 25.4031 58.6045 26.7394C58.5566 27.6371 58.8581 28.2401 59.5228 28.5759C59.8175 28.7266 59.9477 28.7472 60.5439 28.7472C61.3182 28.7472 61.6746 28.6239 62.1269 28.199C62.3598 27.9728 62.3667 27.9728 62.4215 28.1168C62.5586 28.4731 62.9766 28.7129 63.4494 28.7129H63.7989V26.2185C63.7989 23.8818 63.7921 23.6967 63.655 23.265C63.4768 22.6825 62.9903 22.1549 62.4626 21.9699C62.1269 21.8465 60.7837 21.7574 60.4753 21.8328ZM62.0378 25.9513C62.2982 25.9924 62.305 25.9924 62.2571 26.2323C62.1406 26.8421 61.7911 27.219 61.2497 27.3081C60.352 27.4589 59.7901 26.8696 60.2903 26.3076C60.5713 25.9993 61.3593 25.8348 62.0378 25.9513Z" fill="#334155"/>
<path d="M70.8025 24.4095C70.8231 26.9861 70.83 27.041 70.9876 27.4384C71.2 27.9661 71.666 28.4458 72.1251 28.5965C72.502 28.7267 73.2969 28.7473 73.6807 28.6445C73.8177 28.6034 74.0919 28.4595 74.2837 28.3293C74.4825 28.1922 74.6469 28.0963 74.6538 28.11C74.6606 28.1237 74.7086 28.2128 74.7566 28.3156C74.8868 28.576 75.2226 28.713 75.716 28.713H76.134V25.643C76.134 22.7854 76.1271 22.5593 76.0038 22.34C75.8187 21.9974 75.3802 21.7781 74.9005 21.8055L74.5236 21.826L74.4893 24.2245C74.4688 25.8623 74.4276 26.6641 74.3728 26.76C74.3317 26.8354 74.2152 26.9724 74.1124 27.0684C73.9548 27.2191 73.8657 27.2397 73.4271 27.2397C72.9886 27.2397 72.8995 27.2191 72.7419 27.0684C72.4061 26.7531 72.3992 26.7326 72.365 24.5671C72.3307 22.5319 72.3307 22.5113 72.1662 22.2783C71.9607 21.9905 71.5358 21.7986 71.1109 21.7918H70.782L70.8025 24.4095Z" fill="#334155"/>
<path d="M78.4228 21.8877C77.5045 22.1207 76.9906 22.7305 76.9495 23.642C76.9289 24.2313 76.9152 24.2107 77.3264 24.1696C77.7786 24.1216 78.1487 23.9435 78.6078 23.5323L78.9642 23.2171L79.4302 23.2445C80.1017 23.2788 80.3347 23.5255 80.4169 24.3067L80.4649 24.7178L79.5535 24.7521C78.0733 24.8138 77.3401 25.129 76.9426 25.8965C76.7781 26.2117 76.7507 26.3351 76.7507 26.8559C76.7507 27.363 76.7781 27.5069 76.9289 27.8084C77.2784 28.5142 77.8883 28.8158 78.834 28.7678C79.4576 28.7335 79.9236 28.5417 80.273 28.1716L80.4786 27.9592L80.6362 28.2264C80.8281 28.5554 81.1502 28.713 81.6093 28.713H81.9588V26.3145C81.9588 24.8069 81.9314 23.7859 81.8834 23.5597C81.7121 22.7717 81.2461 22.196 80.5951 21.9562C80.1771 21.8054 78.8956 21.7643 78.4228 21.8877ZM80.4238 25.9856C80.4786 26.0404 80.2936 26.6435 80.1565 26.8422C79.9236 27.1848 79.6563 27.3082 79.1355 27.3082C78.5736 27.3082 78.3063 27.1506 78.272 26.7942C78.2309 26.3625 78.5256 26.0815 79.1355 25.9719C79.4233 25.9171 80.3621 25.9308 80.4238 25.9856Z" fill="#334155"/>
<path d="M95.6575 21.9151C94.8763 22.1207 94.4308 22.5113 94.1362 23.2445C94.006 23.5666 93.9854 23.779 93.9649 25.0125C93.9306 26.6229 93.9991 27.1437 94.2938 27.6645C94.5199 28.062 94.7872 28.2881 95.2943 28.5211C95.5958 28.665 95.7329 28.6787 96.6237 28.6787C97.727 28.6787 98.1039 28.5965 98.5973 28.2333C98.9262 28.0003 99.2003 27.4589 99.2689 26.9381L99.3168 26.5749L98.7344 26.5955C98.1313 26.6229 98.0285 26.664 97.4323 27.1437C97.3021 27.2534 97.1308 27.3013 96.7813 27.3219C95.9796 27.3699 95.6232 27.0546 95.5821 26.246L95.5615 25.8691L97.0349 25.8348C98.5905 25.8006 98.6453 25.7869 98.9742 25.4442C99.2963 25.1016 99.3785 24.5191 99.2209 23.6762C98.9879 22.4085 98.0971 21.7849 96.562 21.7986C96.3153 21.7986 95.9042 21.8534 95.6575 21.9151ZM97.0006 23.2308C97.3364 23.3062 97.6242 23.6146 97.6927 23.9503C97.727 24.1559 97.7064 24.2313 97.5762 24.3684C97.4186 24.5328 97.3981 24.5328 96.4935 24.5191L95.5615 24.4986L95.5821 24.1902C95.6301 23.6146 95.8357 23.3404 96.3153 23.224C96.6032 23.1554 96.6854 23.1554 97.0006 23.2308Z" fill="#334155"/>
<path d="M110.555 21.8876C109.795 22.0658 109.397 22.3673 109.082 23.0115L108.856 23.4706V27.1711L109.082 27.6371C109.493 28.4662 110.185 28.802 111.46 28.802C112.734 28.802 113.426 28.4662 113.838 27.6371L114.064 27.1779L114.084 25.4716C114.105 23.8886 114.098 23.731 113.961 23.2856C113.776 22.6688 113.358 22.2302 112.762 22.0041C112.234 21.8054 111.165 21.7506 110.555 21.8876ZM112.049 23.3884C112.46 23.6625 112.488 23.7927 112.488 25.3208C112.488 26.5749 112.474 26.7119 112.351 26.9312C111.981 27.5685 110.939 27.5685 110.569 26.9312C110.446 26.7119 110.432 26.5749 110.432 25.3208C110.432 23.7927 110.459 23.6625 110.87 23.3884C111.042 23.2719 111.199 23.2307 111.46 23.2307C111.72 23.2307 111.878 23.2719 112.049 23.3884Z" fill="#334155"/>
<path d="M118.785 21.8808C117.819 22.1275 117.387 22.6689 117.278 23.7516L117.23 24.1902H117.504C118.011 24.1902 118.463 24.0051 118.84 23.6351C119.231 23.2513 119.368 23.2034 119.889 23.2445C120.464 23.2925 120.684 23.5597 120.78 24.3409L120.828 24.7384H120.156C118.936 24.7384 118.182 24.944 117.648 25.41C116.88 26.0884 116.894 27.6645 117.682 28.3361C118.457 29.0008 119.93 28.9186 120.636 28.1716L120.841 27.9592L120.978 28.2127C121.17 28.5417 121.506 28.713 121.965 28.713H122.328L122.308 26.1226C122.287 23.6351 122.28 23.5255 122.13 23.1554C121.91 22.6072 121.588 22.2577 121.081 22.0316C120.711 21.8671 120.547 21.8397 119.896 21.8191C119.416 21.8054 119.005 21.826 118.785 21.8808ZM120.793 25.9993C120.807 26.0061 120.766 26.1843 120.704 26.3899C120.499 27.082 119.95 27.4315 119.238 27.3082C118.84 27.2396 118.621 27.0409 118.621 26.7531C118.621 26.3077 118.868 26.0815 119.505 25.9719C119.779 25.9171 120.738 25.9376 120.793 25.9993Z" fill="#334155"/>
<path d="M124.549 21.8809C124.028 22.0179 123.671 22.2304 123.356 22.5867C123.027 22.9636 122.87 23.4227 122.87 24.0052C122.87 24.5603 122.986 24.8961 123.288 25.2456C123.637 25.643 124.096 25.828 125.131 25.9788C126.042 26.1159 126.282 26.2255 126.392 26.5476C126.522 26.9039 125.988 27.3425 125.426 27.3425C124.953 27.3425 124.603 27.1643 124.466 26.856C124.364 26.6093 124.329 26.5887 124.083 26.5887C123.74 26.5887 123.397 26.8011 123.253 27.0958C122.993 27.644 123.205 28.0689 123.918 28.4321C124.343 28.6514 124.439 28.6719 125.138 28.6993C126.269 28.7473 126.885 28.576 127.454 28.0552C127.872 27.6851 128.03 27.2397 127.995 26.5202C127.975 25.9994 127.948 25.8829 127.769 25.5882C127.495 25.1428 126.995 24.8413 126.378 24.7453C126.125 24.711 125.679 24.6494 125.385 24.6151C124.713 24.5329 124.514 24.3821 124.514 23.9504C124.514 23.7243 124.555 23.6283 124.727 23.4639C124.919 23.2788 124.973 23.2651 125.439 23.2651C125.905 23.2651 125.96 23.2788 126.152 23.4639C126.269 23.5803 126.365 23.738 126.365 23.827C126.365 23.971 126.392 23.9847 126.728 23.9847C127.372 23.9847 127.804 23.5324 127.701 22.9773C127.639 22.6347 127.166 22.1892 126.666 21.9974C126.166 21.8055 125.076 21.7507 124.549 21.8809Z" fill="#334155"/>
<path d="M114.866 24.8892C114.886 28.062 114.879 27.9729 115.311 28.3841C115.558 28.6171 115.811 28.713 116.195 28.713H116.496V25.8143C116.496 22.943 116.496 22.9156 116.346 22.6141C116.12 22.1687 115.825 21.9974 115.284 21.9974H114.845L114.866 24.8892Z" fill="#334155"/>
</svg>
