<svg width="41" height="40" viewBox="0 0 41 40" fill="none" xmlns="http://www.w3.org/2000/svg">
<path d="M17.7418 2.3779C15.1309 5.00249 15.1789 4.93397 15.1857 5.79056C15.1926 6.46212 15.3433 6.72938 16.3644 7.76414L17.2278 8.63444L20.1197 5.75629L20.9831 6.62659C21.456 7.11313 21.9083 7.64079 21.9974 7.80526C22.2098 8.23013 22.2509 8.73723 22.1001 9.18951C21.9905 9.539 21.7507 9.79255 17.8514 13.7055C13.918 17.6526 13.7124 17.8788 13.4725 18.3653C13.2121 18.8998 13.0203 19.6399 13.0203 20.1128C13.0203 20.5856 13.2121 21.3257 13.4725 21.8602C13.7124 22.3468 13.9043 22.5592 16.8989 25.5607L20.0786 28.7472L23.6489 25.1838C25.6087 23.2239 27.2877 21.5107 27.3768 21.3737C27.5823 21.0584 27.7537 20.476 27.7537 20.1128C27.7537 19.7496 27.5823 19.1671 27.3768 18.8519C27.2877 18.7148 26.9039 18.2968 26.527 17.9199L25.8349 17.2346L20.106 22.9635L19.1123 21.9493C18.0502 20.8666 17.9542 20.709 17.9542 20.0716C17.9611 19.4343 17.9885 19.4069 22.4359 14.939C25.9651 11.3961 26.6641 10.656 26.8491 10.3065C27.4521 9.14154 27.3905 7.74359 26.6846 6.68141C26.5613 6.48954 25.0263 4.91341 23.2857 3.16596L20.1128 0L17.7418 2.3779Z" fill="#202F60"/>
<path d="M10.7519 9.6145C10.6149 9.66932 10.4162 9.77211 10.3065 9.85434C10.1969 9.92972 7.83268 12.2733 5.05047 15.0555L0 20.1129L6.48954 26.5955C13.8288 33.9211 13.2326 33.4072 14.3565 33.4072C15.2336 33.4072 15.6311 33.2016 16.5494 32.2764L17.2346 31.5912L5.7563 20.1129L10.0393 15.8299C12.3966 13.4726 14.3222 11.5127 14.3222 11.4716C14.3222 11.3414 12.8694 9.97084 12.5131 9.76526C12.2253 9.59394 12.0882 9.56653 11.588 9.54597C11.2111 9.53226 10.9096 9.55968 10.7519 9.6145Z" fill="#202F60"/>
<path d="M30.899 12.4309C30.5358 12.5611 30.3439 12.7187 29.4873 13.5822L28.713 14.3565L31.5568 17.2004C33.1193 18.7628 34.4007 20.0717 34.4007 20.1128C34.4007 20.1471 30.5358 24.0463 25.8211 28.761L17.2346 37.3474L17.9884 38.1012C18.941 39.0606 19.2425 39.2251 20.0785 39.2251C21.1749 39.2319 20.2498 40.068 30.8236 29.5079L40.2256 20.1128L36.5114 16.3918C33.6949 13.5822 32.7081 12.6365 32.4546 12.5063C32.1804 12.3692 32.0091 12.335 31.6322 12.335C31.365 12.3418 31.036 12.3829 30.899 12.4309Z" fill="#202F60"/>
</svg>
